<?xml version="1.0" encoding="utf-8"?>
<!-- Generator: Adobe Illustrator 22.0.1, SVG Export Plug-In . SVG Version: 6.00 Build 0)  -->
<svg version="1.1" id="Ebene_1" xmlns="http://www.w3.org/2000/svg" xmlns:xlink="http://www.w3.org/1999/xlink" x="0px" y="0px"
	 viewBox="0 0 841.9 595.3" style="enable-background:new 0 0 841.9 595.3;" xml:space="preserve">
<style type="text/css">
	.st0{clip-path:url(#SVGID_2_);}
	.st1{clip-path:url(#SVGID_4_);}
</style>
<g>
	<defs>
		<rect id="SVGID_1_" x="195" y="253.3" width="451.9" height="89"/>
	</defs>
	<clipPath id="SVGID_2_">
		<use xlink:href="#SVGID_1_"  style="overflow:visible;"/>
	</clipPath>
	<path class="st0" d="M243.1,296.7h-7.6v30.8l6.8,0.6c10.1,0,13.9-7.3,13.9-16.4C256.1,301.6,250.4,296.7,243.1,296.7"/>
	<path class="st0" d="M253.3,280.2c0-7.6-3.6-12.8-10.2-12.8l-7.6,0.6v27.2h7.3C249.5,295.2,253.3,288.8,253.3,280.2"/>
	<path class="st0" d="M432.8,267.4l-5.8,0.6l-18.8,60.4l-6.5,1.5l-14.5-44.2l-12.5,42.6l-6.5,1.5l-13.7-42
		c-6.8,0.7-10.2,7.7-10.2,18.2c0,10.1,3.5,17.8,9.4,17.8c2.3,0,3.4-0.6,6.4-2.7l1.7-1.1l0.2,1.2l-12.1,9.3c-9.8,0-17-9-17-20.3
		c0-12.1,5.8-21.8,19.8-24.6c0.3,0,0.7,0,1,0l-5.7-17.6l-5.1-0.6v-1.2h24.7v1.2l-7,0.6l15.6,49.6l10.1-34.7l-4.8-14.8l-5-0.6v-1.2
		h24.6v1.2l-6.9,0.6l15.5,49.6l15.4-49.6l-7.5-0.6v-1.2h15.2V267.4z M331.3,329.2h-25.8v-1.1l7.3-0.7l-6.7-20.6h-21.8l-7.1,20.6
		l7.4,0.7v1.1h-15.3v-1.2l5.8-0.6l20.9-58.8l8.5-3.6l21,62.4l5.8,0.6V329.2z M243.8,329.2h-27.4v-1.2l6.5-0.6v-59.4l-6.5-0.6v-1.2
		h30.3c11.5,0,17.4,6.7,17.4,13.8c0,9.1-8.5,15.3-20,15.7c16.2,0.3,22.8,7.2,22.8,15.5C267.1,322.6,258,328.7,243.8,329.2
		 M195,342.3h258v-89H195V342.3z"/>
</g>
<polygon points="284.9,305.2 305.5,305.2 295.7,274.4 "/>
<rect x="483.4" y="253.3" width="1.7" height="89"/>
<g>
	<defs>
		<rect id="SVGID_3_" x="195" y="253.3" width="451.9" height="89"/>
	</defs>
	<clipPath id="SVGID_4_">
		<use xlink:href="#SVGID_3_"  style="overflow:visible;"/>
	</clipPath>
	<path class="st1" d="M646.9,329.1v-9.4h-1.2v2.4c0,1.6,0.1,4.3,0.1,5.5c-0.3-0.6-0.7-1.3-1-1.9l-3.6-5.9h-1.7v9.4h1.2v-2.6
		c0-1.6,0-4.3-0.1-5.3c0.3,0.6,0.6,1.2,1,1.9l3.7,6.1H646.9z M635.2,329.1V328h-3.6v-3.3h3.4v-1h-3.4v-3h3.6v-1.1h-4.9v9.4H635.2z
		 M626.8,320.7v-1.1h-6.7v1.1h2.7v8.4h1.3v-8.4H626.8z M617.2,320.7v-1.1h-4.8v9.4h1.3v-4.3h3.3v-1h-3.3v-3.1H617.2z M606.5,325.8
		h-3.4l1.3-3.6c0.2-0.4,0.3-0.9,0.4-1.3h0c0.1,0.4,0.2,0.8,0.4,1.3L606.5,325.8z M609,329.1l-3.5-9.4h-1.5l-3.4,9.4h1.3l0.8-2.2h4
		l0.8,2.2H609z M597.4,329.1v-9.4h-1.3v4h-4.8v-4H590v9.4h1.3v-4.4h4.8v4.4H597.4z M586.1,328.7l-0.2-1.1c-0.6,0.3-1.4,0.5-2.1,0.5
		c-2.2,0-3.2-1.3-3.2-3.7c0-2.1,0.9-3.7,3.1-3.7c0.7,0,1.4,0.1,2.1,0.4l0.2-1.2c-0.7-0.2-1.4-0.3-2.2-0.3c-3.2,0-4.6,2.2-4.6,5
		c0,2.7,1.3,4.6,4.3,4.6C584.4,329.2,585.4,329,586.1,328.7 M576,326.3c0-3-4.3-2.2-4.3-4.3c0-0.9,0.6-1.5,1.9-1.5
		c0.5,0,1.1,0.1,1.6,0.3l0.2-1.1c-0.5-0.1-1.2-0.2-1.7-0.2c-2.1,0-3.3,1.1-3.3,2.7c0,3,4.3,2.2,4.3,4.3c0,1.2-1,1.6-2,1.6
		c-0.7,0-1.4-0.1-2-0.4l-0.2,1.2c0.6,0.2,1.3,0.3,2.1,0.3C574.6,329.2,576,328,576,326.3 M566.3,329.1v-9.4h-1.2v2.4
		c0,1.6,0.1,4.3,0.1,5.5c-0.3-0.6-0.7-1.3-1-1.9l-3.6-5.9h-1.7v9.4h1.2v-2.6c0-1.6,0-4.3-0.1-5.3c0.3,0.6,0.6,1.2,1,1.9l3.7,6.1
		H566.3z M554.6,329.1V328H551v-3.3h3.4v-1H551v-3h3.6v-1.1h-4.9v9.4H554.6z M545.9,326.3c0-3-4.3-2.2-4.3-4.3
		c0-0.9,0.6-1.5,1.9-1.5c0.5,0,1.1,0.1,1.6,0.3l0.2-1.1c-0.5-0.1-1.2-0.2-1.7-0.2c-2.1,0-3.3,1.1-3.3,2.7c0,3,4.3,2.2,4.3,4.3
		c0,1.2-1,1.6-2,1.6c-0.7,0-1.4-0.1-2-0.4l-0.2,1.2c0.6,0.2,1.3,0.3,2.1,0.3C544.5,329.2,545.9,328,545.9,326.3 M536.9,326.3
		c0-3-4.3-2.2-4.3-4.3c0-0.9,0.6-1.5,1.9-1.5c0.5,0,1.1,0.1,1.6,0.3l0.2-1.1c-0.5-0.1-1.2-0.2-1.7-0.2c-2.1,0-3.3,1.1-3.3,2.7
		c0,3,4.3,2.2,4.3,4.3c0,1.2-1,1.6-2,1.6c-0.7,0-1.4-0.1-2-0.4l-0.2,1.2c0.6,0.2,1.3,0.3,2.1,0.3C535.5,329.2,536.9,328,536.9,326.3
		 M527.2,319.6h-1.3v9.4h1.3V319.6z M522.2,319.6h-1.3l-1.6,6.4c-0.1,0.5-0.2,1-0.3,1.5h0c-0.1-0.6-0.2-1.2-0.4-1.7l-1.8-6.3h-1.5
		l-1.8,6.2c-0.2,0.6-0.3,1.1-0.4,1.8h0c-0.1-0.6-0.2-1.2-0.4-1.8l-1.6-6.2h-1.4l2.5,9.4h1.5l1.8-6.4c0.1-0.6,0.3-1.1,0.3-1.6h0
		c0.1,0.5,0.2,1.1,0.3,1.6l1.8,6.4h1.6L522.2,319.6z"/>
	<path class="st1" d="M535.1,304.5c0,1-0.8,1.7-2.1,1.7c-0.4,0-0.7,0-0.8,0v-3.2c0.3,0,0.5,0,0.9,0
		C534.4,302.9,535.1,303.4,535.1,304.5 M537.1,311.4l-2.6-3.4c-0.2-0.3-0.5-0.7-0.8-1c1.5-0.1,2.8-1,2.8-2.7c0-1.8-1.3-2.5-3.2-2.5
		c-1,0-1.7,0-2.4,0.1v9.4h1.3v-4.2h0.2l3.1,4.2H537.1z M526.6,311.4v-1.1h-3.6V307h3.4v-1h-3.4v-3h3.6v-1.1h-4.9v9.4H526.6z
		 M516.6,306.6c0,2.6-1.6,3.7-3.8,3.7c-0.4,0-0.9,0-1.2-0.1V303c0.3,0,0.9,0,1.4,0C515.5,302.9,516.6,304.2,516.6,306.6 M518,306.5
		c0-3.2-1.8-4.7-4.8-4.7c-1,0-2.1,0-2.8,0.1v9.4c0.7,0,1.4,0.1,2.4,0.1C515.8,311.4,518,309.8,518,306.5"/>
	<path class="st1" d="M588.4,293.7v-1.1h-3.6v-3.3h3.4v-1h-3.4v-3h3.6v-1.1h-4.9v9.4H588.4z M578.8,284.2h-1.3v9.4h1.3V284.2z
		 M573.5,293.7l-1.4-9.4h-1.6l-2,6c-0.2,0.5-0.3,1.1-0.5,1.8h0c-0.2-0.6-0.4-1.4-0.5-1.9l-2-6h-1.6l-1.4,9.4h1.3l0.6-5.4
		c0.1-0.9,0.2-1.7,0.3-2.5h0c0.1,0.7,0.4,1.4,0.6,2.2l1.9,5.7h1.4l2-6.1c0.2-0.7,0.4-1.3,0.5-1.8h0c0.1,0.6,0.2,1.4,0.3,2.4l0.8,5.5
		H573.5z M558.7,293.7v-1.1h-3.6v-3.3h3.4v-1h-3.4v-3h3.6v-1.1h-4.9v9.4H558.7z M548.7,288.9c0,2.6-1.6,3.7-3.8,3.7
		c-0.4,0-0.9,0-1.2-0.1v-7.3c0.3,0,0.9,0,1.4,0C547.5,285.2,548.7,286.5,548.7,288.9 M550,288.8c0-3.2-1.8-4.7-4.8-4.7
		c-1,0-2.1,0-2.8,0.1v9.4c0.7,0,1.4,0.1,2.4,0.1C547.8,293.7,550,292.1,550,288.8 M536.5,290.4h-3.4l1.3-3.6
		c0.2-0.4,0.3-0.9,0.4-1.3h0c0.1,0.4,0.2,0.8,0.4,1.3L536.5,290.4z M539,293.7l-3.5-9.4h-1.5l-3.4,9.4h1.3l0.8-2.2h4l0.8,2.2H539z
		 M528.4,293.7l-4.1-4.9l4-4.6h-1.6l-3.8,4.5v-4.5h-1.3v9.4h1.3V289l3.7,4.7H528.4z M515.7,290.4h-3.4l1.3-3.6
		c0.2-0.4,0.3-0.9,0.4-1.3h0c0.1,0.4,0.2,0.8,0.4,1.3L515.7,290.4z M518.3,293.7l-3.5-9.4h-1.5l-3.4,9.4h1.3l0.8-2.2h4l0.8,2.2
		H518.3z"/>
	<path class="st1" d="M600.3,276v-1.1h-3.6v-3.3h3.4v-1h-3.4v-3h3.6v-1.1h-4.9v9.4H600.3z M590.7,276v-9.4h-1.3v4h-4.8v-4h-1.3v9.4
		h1.3v-4.4h4.8v4.4H590.7z M579.4,275.6l-0.2-1.1c-0.6,0.3-1.4,0.5-2.1,0.5c-2.2,0-3.2-1.3-3.2-3.7c0-2.1,0.9-3.7,3.1-3.7
		c0.7,0,1.4,0.1,2.1,0.4l0.2-1.2c-0.7-0.2-1.4-0.3-2.2-0.3c-3.2,0-4.6,2.2-4.6,5c0,2.7,1.3,4.6,4.3,4.6
		C577.8,276.1,578.7,275.9,579.4,275.6 M569.3,273.2c0-3-4.3-2.2-4.3-4.3c0-0.9,0.6-1.5,1.9-1.5c0.5,0,1.1,0.1,1.6,0.3l0.2-1.1
		c-0.5-0.1-1.2-0.2-1.7-0.2c-2.1,0-3.3,1.1-3.3,2.7c0,3,4.3,2.2,4.3,4.3c0,1.2-1,1.6-2,1.6c-0.7,0-1.4-0.1-2-0.4l-0.2,1.2
		c0.6,0.2,1.3,0.3,2.1,0.3C567.9,276.1,569.3,274.9,569.3,273.2 M559.7,266.5h-1.3v9.4h1.3V266.5z M552.6,269.1c0,1-0.8,1.7-2.1,1.7
		c-0.4,0-0.7,0-0.8,0v-3.2c0.3,0,0.5,0,0.9,0C551.9,267.5,552.6,268,552.6,269.1 M554.6,276l-2.6-3.4c-0.2-0.3-0.5-0.7-0.8-1
		c1.5-0.1,2.8-1,2.8-2.7c0-1.8-1.3-2.5-3.2-2.5c-1,0-1.7,0-2.4,0.1v9.4h1.3v-4.2h0.2l3.1,4.2H554.6z M544.2,276v-1.1h-3.6v-3.3h3.4
		v-1h-3.4v-3h3.6v-1.1h-4.9v9.4H544.2z M536.1,266.5h-1.3l-1.5,3c-0.3,0.6-0.6,1.2-0.8,1.8h0c-0.2-0.5-0.4-1.1-0.7-1.6l-1.5-3.2
		h-1.4l3,6v3.4h1.3v-3.4L536.1,266.5z M524.9,272.7h-3.4l1.3-3.6c0.2-0.4,0.3-0.9,0.4-1.3h0c0.1,0.4,0.2,0.8,0.4,1.3L524.9,272.7z
		 M527.5,276l-3.5-9.4h-1.5l-3.4,9.4h1.3l0.8-2.2h4l0.8,2.2H527.5z M515.1,273.2c0,1-0.7,1.8-2.2,1.8c-0.4,0-1,0-1.2-0.1v-3.3
		c0.2,0,0.7,0,0.9,0C514,271.6,515.1,272,515.1,273.2 M514.8,269c0,1-0.7,1.7-2.3,1.7c-0.3,0-0.6,0-0.9,0v-3.1c0.4,0,0.8,0,1.3,0
		C514.3,267.5,514.8,268.1,514.8,269 M516.4,273.1c0-1.2-0.8-2-1.9-2.2v0c1-0.3,1.6-1.2,1.6-2.2c0-1.4-1-2.3-3-2.3
		c-1.1,0-2.1,0-2.8,0v9.4c0.9,0,1.7,0,2.4,0C515.5,276,516.4,274.4,516.4,273.1"/>
</g>
</svg>
