<svg width="450" height="200" viewBox="0 0 450 200" fill="none" xmlns="http://www.w3.org/2000/svg">
<rect y="150" width="450" height="50" fill="#003835" fill-opacity="0.75"/>
<rect width="450" height="150" fill="#003835"/>
<path d="M64.2859 100.001C81.7606 100.001 95.9778 85.5393 96.4177 67.5273L96.4285 66.667H128.572L128.566 67.5293C128.121 103.951 99.5121 133.334 64.2859 133.334V100.001Z" fill="#003835"/>
<path d="M321.428 100.001C338.903 100.001 353.121 85.5394 353.561 67.5273L353.571 66.667H385.715L385.709 67.5293C385.264 103.951 356.655 133.334 321.428 133.334V100.001Z" fill="#006844"/>
<path d="M64.2859 0.000976562C99.7895 0.00120544 128.571 29.8483 128.571 66.667H96.4285C96.4285 48.2575 82.0378 33.334 64.2859 33.334V0.000976562Z" fill="#003835"/>
<path d="M385.713 0.000976562C350.21 0.00141144 321.428 29.8484 321.428 66.667H353.572C353.572 48.2578 367.962 33.3344 385.713 33.334V0.000976562Z" fill="#003835"/>
<path d="M128.572 0.000976562C164.075 0.00120544 192.857 29.8483 192.857 66.667H160.714C160.714 48.2576 146.324 33.3341 128.572 33.334V0.000976562Z" fill="#FFF48E"/>
<path d="M257.143 0.000976562C221.639 0.0012207 192.858 29.8483 192.858 66.667H225C225 48.2576 239.391 33.3341 257.143 33.334V0.000976562Z" fill="#8FB257"/>
<path d="M192.857 133.333C157.354 133.333 128.572 103.486 128.572 66.667H160.715C160.715 85.0765 175.105 100 192.857 100V133.333Z" fill="#FFF48E"/>
<path d="M192.857 133.333C228.361 133.333 257.142 103.486 257.143 66.667H225C225 85.0765 210.609 100 192.857 100V133.333Z" fill="#006844"/>
<path d="M385.719 65.8047C386.164 29.3833 414.773 0.000305176 450 0V33.334C432.525 33.3341 418.308 47.7948 417.868 65.8066L417.857 66.667H385.713L385.719 65.8047Z" fill="#FFF48E"/>
<path d="M0.00585938 65.8047C0.451055 29.3833 29.06 0.000236511 64.2861 0V33.334C46.8116 33.334 32.5943 47.7948 32.1543 65.8066L32.1436 66.667H0L0.00585938 65.8047Z" fill="#003835"/>
<path d="M321.424 65.8047C320.978 29.3834 292.369 0.000442505 257.143 0V33.334C274.895 33.3341 289.286 48.2576 289.286 66.667H321.429L321.424 65.8047Z" fill="#8FB257"/>
<path d="M417.857 66.667C417.857 85.0764 432.248 100.001 450 100.001V133.333C414.496 133.333 385.715 103.486 385.714 66.667H417.857Z" fill="#FFF48E"/>
<path d="M32.1436 66.667C32.1436 85.0765 46.5342 100.001 64.2861 100.001V133.333C28.7825 133.333 0.00113562 103.486 0.000976563 66.667H32.1436Z" fill="#003835"/>
<path d="M289.285 66.667C289.285 85.0765 303.677 100.001 321.429 100.001V133.332L321.428 133.333C285.924 133.333 257.143 103.486 257.143 66.667H289.285Z" fill="#203E12"/>
<path d="M450 0.000488281C414.496 0.000714937 385.714 29.8486 385.714 66.6675V0.000488281H450Z" fill="#003835"/>
<path d="M192.857 133.334C157.353 133.334 128.572 163.182 128.572 200.001V133.334H192.857Z" fill="#003835"/>
<path d="M450 133.334C414.496 133.334 385.714 103.486 385.714 66.667V133.334H450Z" fill="#003835"/>
<path d="M321.428 133.334C285.924 133.334 257.143 103.486 257.143 66.667V133.334H321.428Z" fill="#B7C8C1"/>
<path d="M64.2866 133.334C99.7904 133.334 128.572 163.182 128.572 200.001V133.334H64.2866Z" fill="#003835"/>
<path d="M64.2866 133.334C99.7904 133.334 128.572 103.486 128.572 66.667V133.334H64.2866Z" fill="#003835"/>
<path d="M321.429 133.334C356.933 133.334 385.714 103.486 385.714 66.667V133.334H321.429Z" fill="#003835"/>
<path d="M64.2864 66.6675H96.429C96.4288 85.0768 82.0381 100 64.2864 100V66.6675Z" fill="#B7C8C1"/>
<path d="M321.428 66.6675H353.571C353.571 85.0768 339.18 100 321.428 100V66.6675Z" fill="#203E12"/>
<path d="M64.2864 66.667H96.429C96.4288 48.2577 82.0381 33.3341 64.2864 33.334V66.667Z" fill="#B7C8C1"/>
<path d="M385.714 66.667H353.571C353.571 48.2577 367.962 33.3341 385.714 33.334V66.667Z" fill="#FFF48E"/>
<path d="M385.714 66.667H417.857C417.857 48.2577 403.466 33.3341 385.714 33.334V66.667Z" fill="#FFF48E"/>
<path d="M128.572 66.667H160.715C160.714 48.2577 146.324 33.3341 128.572 33.334V66.667Z" fill="#FFF48E"/>
<path d="M192.857 66.6675H160.715C160.715 85.0768 175.105 100 192.857 100V66.6675Z" fill="#FFF48E"/>
<path d="M192.857 66.6675H225C225 85.0768 210.609 100 192.857 100V66.6675Z" fill="#006844"/>
<path d="M450 66.6675H417.857C417.857 85.0768 432.248 100 450 100V66.6675Z" fill="#8FB257"/>
<path d="M64.2859 66.6675H32.1433C32.1435 85.0768 46.5341 100 64.2859 100V66.6675Z" fill="#B7C8C1"/>
<path d="M321.428 66.6675H289.286C289.286 85.0768 303.676 100 321.428 100V66.6675Z" fill="#8FB257"/>
<path d="M450 66.667H417.857C417.857 48.2577 432.248 33.3341 450 33.334V66.667Z" fill="#8FB257"/>
<path d="M64.2859 66.667H32.1433C32.1435 48.2577 46.5341 33.3341 64.2859 33.334V66.667Z" fill="#B7C8C1"/>
<path d="M257.143 66.667H289.286C289.285 48.2577 274.895 33.3341 257.143 33.334V66.667Z" fill="#203E12"/>
<path d="M257.143 66.667H225C225 48.2577 239.391 33.3341 257.143 33.334V66.667Z" fill="#8FB257"/>
<path d="M321.428 166.667C339.18 166.667 353.572 181.591 353.572 200.001H385.714L385.708 199.139C385.263 162.717 356.654 133.334 321.428 133.334V166.667Z" fill="#203E12"/>
<path d="M192.857 166.667C175.105 166.667 160.714 181.592 160.714 200.001H128.571L128.577 199.139C129.022 162.717 157.631 133.334 192.857 133.334V166.667Z" fill="#203E12"/>
<path d="M64.2861 166.667C46.5342 166.667 32.1436 181.591 32.1436 200.001H0L0.00585937 199.139C0.450901 162.717 29.0599 133.334 64.2861 133.334V166.667Z" fill="#003835"/>
<path d="M192.858 166.667C210.61 166.667 225 181.592 225 200.001H257.144L257.138 199.139C256.693 162.717 228.084 133.334 192.858 133.334V166.667Z" fill="#203E12"/>
<path d="M64.2866 166.667C82.0384 166.667 96.4292 181.592 96.4292 200.001H128.573L128.567 199.139C128.122 162.717 99.5127 133.334 64.2866 133.334V166.667Z" fill="#003835"/>
<path d="M321.429 166.667H321.428C303.676 166.667 289.285 181.592 289.285 200.001H257.143L257.149 199.139C257.594 162.717 286.203 133.334 321.429 133.334V166.667Z" fill="#203E12"/>
<path d="M385.715 166.667C403.466 166.667 417.857 181.592 417.857 200.001H450.001L449.995 199.139C449.55 162.717 420.941 133.334 385.715 133.334V166.667Z" fill="#B7C8C1"/>
<path d="M385.714 200.001C385.714 163.182 356.933 133.334 321.429 133.334H385.714V200.001Z" fill="#B7C8C1"/>
<path d="M192.858 133.334C228.361 133.334 257.143 163.182 257.143 200.001V133.334H192.858Z" fill="#B7C8C1"/>
<path d="M64.2866 0.000488281C99.7904 0.000714937 128.572 29.8486 128.572 66.6675V0.000488281H64.2866Z" fill="#FFF48E"/>
<path d="M321.428 133.334C285.924 133.334 257.143 163.182 257.143 200.001V133.334H321.428Z" fill="#B7C8C1"/>
<path d="M192.858 133.334C228.361 133.334 257.143 103.486 257.143 66.667V133.334H192.858Z" fill="#B7C8C1"/>
<path d="M192.857 133.334C157.353 133.334 128.572 103.486 128.572 66.667V133.334H192.857Z" fill="#003835"/>
<path d="M321.428 200V166.667C339.18 166.667 353.571 181.591 353.571 200H321.428Z" fill="#8FB257"/>
<path d="M192.857 200V166.667C175.105 166.667 160.715 181.591 160.715 200H192.857Z" fill="#006844"/>
<path d="M64.2859 200V166.667C46.5341 166.667 32.1435 181.591 32.1433 200H64.2859Z" fill="#006844"/>
<path d="M192.857 200V166.667C210.609 166.667 225 181.591 225 200H192.857Z" fill="#006844"/>
<path d="M64.2864 200V166.667C82.0381 166.667 96.4288 181.591 96.429 200H64.2864Z" fill="#006844"/>
<path d="M385.714 200V166.667C403.466 166.667 417.857 181.591 417.857 200H385.714Z" fill="#B7C8C1"/>
<path d="M321.428 200V166.667C303.676 166.667 289.286 181.591 289.286 200H321.428Z" fill="#FFF48E"/>
<path d="M450 200.001C450 163.182 421.218 133.334 385.715 133.334H450V200.001Z" fill="#003835"/>
</svg>
