<svg width="47" height="32" viewBox="0 0 47 32" fill="none" xmlns="http://www.w3.org/2000/svg">
<rect width="46.9992" height="31.3328" fill="#003835"/>
<path d="M2.61108 2.61035C9.82139 2.61057 15.6667 8.45566 15.6667 15.666H9.1394C9.1394 12.1734 6.39615 9.32132 2.94702 9.14648L2.61108 9.1377L2.61108 2.61035Z" fill="#8FB257"/>
<path d="M22.1937 28.7217C14.9839 28.7211 9.13928 22.8769 9.13904 15.667H15.6664C15.6668 19.1593 18.4088 22.0108 21.8578 22.1855L22.1937 22.1943V28.7217Z" fill="#006844"/>
<path d="M22.1937 28.7218C29.4042 28.7218 35.2495 22.8765 35.2495 15.666H28.7216C28.7216 19.2713 25.799 22.1939 22.1937 22.1939V28.7218Z" fill="#006844"/>
<rect x="28.7213" y="13.5771" width="6.52787" height="2.08892" fill="#006844"/>
<path d="M31.3324 9.1377C34.8249 9.13769 37.6771 6.39538 37.8519 2.94629L37.8607 2.61035H44.3881C44.3879 9.82073 38.5428 15.666 31.3324 15.666V9.1377Z" fill="#8FB257"/>
<path d="M24.8046 2.6123C24.8054 6.21681 27.7282 9.13867 31.3329 9.13867V15.668C24.1227 15.6679 18.2776 9.82244 18.2772 2.6123H24.8046Z" fill="#8FB257"/>
</svg>
