<?xml version="1.0" encoding="UTF-8"?>
<svg id="Ebene_1" xmlns="http://www.w3.org/2000/svg" version="1.1" xmlns:xlink="http://www.w3.org/1999/xlink" viewBox="0 0 94.62 76.54">
  <!-- Generator: Adobe Illustrator 30.0.0, SVG Export Plug-In . SVG Version: 2.1.1 Build 123)  -->
  <defs>
    <style>
      .st0 {
        fill: #5d1433;
      }

      .st1 {
        fill: #1c6c40;
      }

      .st2 {
        fill: none;
      }

      .st3 {
        fill: #00537f;
      }

      .st4 {
        fill: #ffffff;
      }

      .st5 {
        clip-path: url(#clippath);
      }
    </style>
    <clipPath id="clippath">
      <rect class="st2" x="7.37" y="5.95" width="311.24" height="64.64"/>
    </clipPath>
  </defs>
  <g class="st5">
    <path class="st4" d="M25.28,12.96c.7,0,1.26-.56,1.26-1.26s-.56-1.26-1.26-1.26-1.26.57-1.26,1.26.56,1.26,1.26,1.26"/>
    <path class="st4" d="M11.11,15.44c2.07,0,3.74-1.67,3.74-3.74s-1.68-3.74-3.74-3.74-3.74,1.67-3.74,3.74,1.68,3.74,3.74,3.74"/>
    <path class="st4" d="M39.46,13.9c1.21,0,2.2-.98,2.2-2.2s-.98-2.2-2.2-2.2-2.2.98-2.2,2.2.98,2.2,2.2,2.2"/>
    <path class="st4" d="M53.63,14.36c1.47,0,2.66-1.19,2.66-2.66s-1.19-2.66-2.66-2.66-2.67,1.19-2.67,2.66,1.19,2.66,2.67,2.66"/>
    <path class="st1" d="M67.8,15.04c1.85,0,3.34-1.5,3.34-3.34s-1.5-3.35-3.34-3.35-3.35,1.5-3.35,3.35,1.5,3.34,3.35,3.34"/>
    <path class="st4" d="M81.98,17.45c3.18,0,5.75-2.58,5.75-5.75s-2.58-5.76-5.75-5.76-5.75,2.58-5.75,5.76,2.58,5.75,5.75,5.75"/>
    <path class="st4" d="M25.28,28.52c1.46,0,2.65-1.19,2.65-2.65s-1.19-2.65-2.65-2.65-2.65,1.19-2.65,2.65,1.19,2.65,2.65,2.65"/>
    <path class="st4" d="M11.11,27.97c1.16,0,2.1-.94,2.1-2.1s-.94-2.1-2.1-2.1-2.1.94-2.1,2.1.94,2.1,2.1,2.1"/>
    <path class="st4" d="M39.46,29.12c1.79,0,3.25-1.45,3.25-3.25s-1.45-3.24-3.25-3.24-3.25,1.45-3.25,3.24,1.45,3.25,3.25,3.25"/>
    <path class="st4" d="M53.63,29.87c2.21,0,4-1.79,4-4s-1.79-4-4-4-4,1.79-4,4,1.79,4,4,4"/>
    <path class="st4" d="M67.8,27.28c.77,0,1.4-.63,1.4-1.4s-.63-1.4-1.4-1.4-1.4.63-1.4,1.4.63,1.4,1.4,1.4"/>
    <path class="st4" d="M81.98,27.76c1.04,0,1.88-.84,1.88-1.88s-.84-1.88-1.88-1.88-1.89.84-1.89,1.88.84,1.88,1.89,1.88"/>
    <path class="st4" d="M25.28,42.51c1.36,0,2.47-1.1,2.47-2.47s-1.1-2.47-2.47-2.47-2.47,1.1-2.47,2.47,1.1,2.47,2.47,2.47"/>
    <path class="st0" d="M11.11,42.85c1.55,0,2.81-1.26,2.81-2.81s-1.26-2.81-2.81-2.81-2.81,1.26-2.81,2.81,1.26,2.81,2.81,2.81"/>
    <path class="st4" d="M39.46,44.54c2.48,0,4.49-2.01,4.49-4.49s-2.01-4.49-4.49-4.49-4.49,2.01-4.49,4.49,2.01,4.49,4.49,4.49"/>
    <path class="st4" d="M53.63,42.5c1.35,0,2.45-1.1,2.45-2.45s-1.1-2.45-2.45-2.45-2.45,1.1-2.45,2.45,1.1,2.45,2.45,2.45"/>
    <path class="st4" d="M67.8,41.31c.7,0,1.26-.56,1.26-1.26s-.56-1.26-1.26-1.26-1.26.57-1.26,1.26.56,1.26,1.26,1.26"/>
    <path class="st3" d="M81.98,41.73c.93,0,1.69-.75,1.69-1.69s-.76-1.69-1.69-1.69-1.69.75-1.69,1.69.76,1.69,1.69,1.69"/>
    <path class="st4" d="M25.28,58.09c2.14,0,3.87-1.73,3.87-3.87s-1.73-3.87-3.87-3.87-3.87,1.73-3.87,3.87,1.73,3.87,3.87,3.87"/>
    <path class="st4" d="M11.11,55.48c.7,0,1.26-.56,1.26-1.26s-.56-1.26-1.26-1.26-1.26.57-1.26,1.26.56,1.26,1.26,1.26"/>
    <path class="st4" d="M39.46,58.15c2.17,0,3.93-1.76,3.93-3.93s-1.76-3.93-3.93-3.93-3.93,1.76-3.93,3.93,1.76,3.93,3.93,3.93"/>
    <path class="st4" d="M53.63,55.48c.7,0,1.26-.56,1.26-1.26s-.56-1.26-1.26-1.26-1.26.57-1.26,1.26.56,1.26,1.26,1.26"/>
    <path class="st4" d="M67.8,57.86c2.01,0,3.64-1.63,3.64-3.64s-1.63-3.64-3.64-3.64-3.64,1.63-3.64,3.64,1.63,3.64,3.64,3.64"/>
    <path class="st4" d="M81.98,57.34c1.72,0,3.12-1.4,3.12-3.12s-1.4-3.12-3.12-3.12-3.12,1.4-3.12,3.12,1.4,3.12,3.12,3.12"/>
    <path class="st4" d="M25.28,70.01c.89,0,1.62-.72,1.62-1.62s-.72-1.62-1.62-1.62-1.62.72-1.62,1.62.72,1.62,1.62,1.62"/>
    <path class="st4" d="M11.11,69.65c.7,0,1.26-.56,1.26-1.26s-.56-1.26-1.26-1.26-1.26.57-1.26,1.26.56,1.26,1.26,1.26"/>
    <path class="st4" d="M39.46,70.59c1.21,0,2.2-.98,2.2-2.2s-.98-2.2-2.2-2.2-2.2.98-2.2,2.2.98,2.2,2.2,2.2"/>
    <path class="st4" d="M53.63,69.65c.7,0,1.26-.56,1.26-1.26s-.56-1.26-1.26-1.26-1.26.57-1.26,1.26.56,1.26,1.26,1.26"/>
    <path class="st4" d="M67.8,69.67c.7,0,1.28-.57,1.28-1.28s-.57-1.28-1.28-1.28-1.28.57-1.28,1.28.57,1.28,1.28,1.28"/>
    <path class="st4" d="M81.98,70.25c1.02,0,1.86-.83,1.86-1.86s-.83-1.86-1.86-1.86-1.86.83-1.86,1.86.83,1.86,1.86,1.86"/>
  </g>
</svg>